<svg id="Layer_1" data-name="Layer 1" xmlns="http://www.w3.org/2000/svg" viewBox="0 0 1481.02 632.93"><defs><style>.cls-1{fill:#fff;}</style></defs><title>Huset tekst</title><path class="cls-1" d="M200.59,553.81h27.76c.09-1.67.25-3.31.26-5q0-62.09,0-124.18c0-1.32-.06-2.65,0-4,.28-3.52,1.75-4.91,5.25-5.08.66,0,1.32,0,2,0h83.05a25.57,25.57,0,0,1,3.16.06,4.5,4.5,0,0,1,4.14,4.1,30.61,30.61,0,0,1,.08,4v129.6c3.09.82,22,1,27.75.31.06-1.44.18-3,.18-4.5q0-67.63,0-135.26a34.64,34.64,0,0,1,.06-3.95,4.64,4.64,0,0,1,4.3-4.41,4.7,4.7,0,0,1,4.77,4.36,19.49,19.49,0,0,1,.08,2.76V555.81a21.31,21.31,0,0,1-.06,2.77c-.37,2.79-1.84,4.2-4.71,4.29-3.29.11-6.59,0-9.89,0-8.44,0-16.87,0-25.31,0-5.15,0-6.27-1.1-6.27-6.28q0-46.86,0-93.73,0-17.59,0-35.2c0-.77-.11-1.55-.17-2.27-3-.86-71.12-1.21-79.17-.39,0,1.43-.13,2.94-.13,4.46q0,62.88,0,125.76a32.46,32.46,0,0,1-.05,3.56,4.15,4.15,0,0,1-4,4.05,20.79,20.79,0,0,1-2.37,0q-16.62,0-33.22,0c-5.45,0-6.41-1-6.41-6.53q0-72.18,0-144.36a14.27,14.27,0,0,1,.24-3.14,4.4,4.4,0,0,1,8.58.16,22.44,22.44,0,0,1,.15,3.94q0,67.83,0,135.65Z"/><path class="cls-1" d="M237.72,378.34H317c.06-1.71.17-3.35.17-5q0-52.6,0-105.2c0-5.54,0-11.08,0-16.62,0-4.79,1.31-6,6.17-6q16.82,0,33.62,0c5.09,0,6.42,1.38,6.44,6.65,0,7.38,0,14.77,0,22.15V387.8a32.49,32.49,0,0,1-.06,3.56c-.3,2.84-2,4.49-4.56,4.51s-4.25-1.59-4.55-4.47a35.24,35.24,0,0,1-.05-3.56V254.73H326.32V378.55c0,1.19,0,2.38,0,3.56-.15,3.84-1.73,5.38-5.65,5.57-.65,0-1.31,0-2,0H236.42c-.92,0-1.85,0-2.77,0-3.24-.28-4.69-1.71-5-5-.11-1.31,0-2.63,0-3.95v-124h-28V388.07a30.57,30.57,0,0,1-.08,3.95,4.23,4.23,0,0,1-4.26,3.86,4.16,4.16,0,0,1-4.46-3.6,20,20,0,0,1-.18-3.55V252.67a25.37,25.37,0,0,1,.06-2.76c.31-2.87,1.71-4.22,4.59-4.4,1.57-.09,3.16,0,4.74,0q15.23,0,30.46,0c5,0,6.25,1.23,6.26,6.32q0,60.72,0,121.43Z"/><path class="cls-1" d="M800.48,126.74h30a53.58,53.58,0,0,0-3-18C817.32,78,796.55,58.74,764.7,53c-38.28-6.94-76.78,14.6-89,52.9a71.11,71.11,0,0,0-1.42,39.75,61.29,61.29,0,0,0,13,24.59c6.74,8,14.66,14.77,23,21a365.77,365.77,0,0,0,37.89,24.34,28.22,28.22,0,0,1,3,1.82,4.52,4.52,0,0,1,1.37,6,4.45,4.45,0,0,1-5.81,1.82,7,7,0,0,1-1.07-.52c-18.32-10.48-36.36-21.4-52.29-35.39a146,146,0,0,1-13.62-13.74c-11.72-13.41-16.82-29.36-16.68-47A86.12,86.12,0,0,1,735.8,43.92c47.4-7.78,91.09,21.26,101.84,67.92,1.38,6,1.72,12.24,2.16,18.4.31,4.35-1.44,5.94-5.86,6q-18.2.08-36.38,0c-4.32,0-5.71-1.54-6-6a45,45,0,0,0-3.82-16c-5.2-11.45-13.9-18.74-26.2-21.39-13.45-2.9-25.94-.59-37,7.91-15.54,12-17.78,36.65-4.33,50.61a97.08,97.08,0,0,0,12.15,10.67c5.38,4,11.15,7.48,16.76,11.19a20.57,20.57,0,0,1,2.6,1.78,4.42,4.42,0,0,1,.81,5.74,4.51,4.51,0,0,1-5.54,1.71,6.57,6.57,0,0,1-1.07-.51c-10.29-6.42-20.64-12.75-29.46-21.21-6.82-6.54-11.81-14.18-13.41-23.65-4.18-24.73,10.07-46.53,34.47-52.71,10.46-2.65,21-2.64,31.15,1,18.4,6.63,28.19,20.35,31.43,39.22C800.25,125.14,800.34,125.78,800.48,126.74Z"/><path class="cls-1" d="M706.76,280.65H676.29c-.68,3.27.21,6.36.71,9.37,5.6,33.45,30.92,60.19,64.21,66.59,45.85,8.82,87.86-20.51,95.21-65.13,3.66-22.22-1.72-42.07-17.18-58.87A133.3,133.3,0,0,0,795.3,212c-10.07-6.74-20.45-13-30.7-19.46a28.12,28.12,0,0,1-3-1.88,4.41,4.41,0,0,1,3.64-7.78,8.74,8.74,0,0,1,2.55,1c16.52,9.38,32.67,19.34,47.06,31.86,8.91,7.74,16.93,16.28,22.51,26.79,11.39,21.45,12.14,43.81,3.77,66.17-11.85,31.67-34.88,50.85-68.16,57-49.83,9.23-95.16-24.11-104.54-72.2a126.65,126.65,0,0,1-1.7-15.7c-.31-4.66,1.35-6.31,5.88-6.33q18.58,0,37.17,0c4.46,0,5.58,1.07,5.93,5.5,1,12.35,5.52,23,15.2,31.05,16.48,13.73,42.91,11.71,57.41-4.1,11.45-12.48,12.64-35.16.85-47.88a127.73,127.73,0,0,0-13.82-12.34c-3.68-3-7.79-5.4-11.7-8.08a16.94,16.94,0,0,1-2.51-1.91,4.4,4.4,0,0,1,4-7.37,6,6,0,0,1,2.18.83c8.64,5.58,17.2,11.25,24.71,18.36,13.55,12.86,17.49,28.59,12.82,46.25-4.62,17.49-16.74,28.13-33.92,32.55-19,4.89-36.1,1-50.13-13.29a49.29,49.29,0,0,1-13.07-25.7C707.39,283.85,707.09,282.32,706.76,280.65Z"/><path class="cls-1" d="M907.32,254.41V388.77a29.84,29.84,0,0,1-.15,4.34,4.08,4.08,0,0,1-4.36,3.7,4.27,4.27,0,0,1-4.38-3.75,20.75,20.75,0,0,1-.09-3.16q0-68.81,0-137.63c0-.92-.05-1.85,0-2.76.24-2.5,1.43-3.88,3.87-4.29a23.44,23.44,0,0,1,3.94-.18h157.4c5.23.09,6.48,1.34,6.49,6.63,0,10.81-.14,21.62.07,32.43.1,5.6-1.78,7.26-7.15,7.24-37.83-.11-75.67-.06-113.51-.06h-4.82V378.2h58.26c1.18,0,2.37-.05,3.55.06,2.91.25,4.38,1.53,4.55,4.45a75.75,75.75,0,0,1,0,9.88,4.19,4.19,0,0,1-4.72,4.21,4.31,4.31,0,0,1-4.21-4.37c-.12-1.56,0-3.14,0-5.27H943c-1.06,0-2.12.06-3.17,0-2.61-.23-4-1.62-4.29-4.25a25.51,25.51,0,0,1,0-2.77q0-45.48,0-91c0-.66,0-1.32,0-2,.21-3.25,1.6-4.71,4.9-5,1.3-.13,2.63-.06,3.95-.06h116.52V254.41Z"/><path class="cls-1" d="M1060.87,553.29V525.52H943.68c-1,0-2.11,0-3.16,0-3.49-.13-4.9-1.55-5.07-5.12,0-.93,0-1.85,0-2.77V422.29c0-5.93,1-6.9,6.89-6.9h59.51c.08-1.69.1-3,.21-4.25.25-2.85,1.91-4.49,4.49-4.5s4.32,1.55,4.51,4.48a66.31,66.31,0,0,1,0,8.69c-.21,3.05-1.74,4.32-4.92,4.52-1.06.06-2.11,0-3.17,0H944.66v92c1.8.07,3.47.18,5.14.19h111.94c7.72,0,8.33.62,8.34,8.31v29.67c0,.79,0,1.58,0,2.37-.11,4.3-1.48,5.7-5.66,5.81-.79,0-1.58,0-2.37,0H906.2c-7.17,0-7.87-.71-7.87-7.94q0-70.2,0-140.41a28.84,28.84,0,0,1,.09-4,4.22,4.22,0,0,1,4.35-3.77,4.06,4.06,0,0,1,4.39,3.66,29.84,29.84,0,0,1,.15,4.34V552.91C910.34,553.88,1054.77,554.2,1060.87,553.29Z"/><path class="cls-1" d="M579.82,560.52h-72a28.13,28.13,0,0,1-3.56-.08,4.17,4.17,0,0,1-3.84-4.26,4.21,4.21,0,0,1,3.64-4.45,27.14,27.14,0,0,1,4.33-.16q68.43,0,136.85,0a85,85,0,0,0,29.09-4.87c19.11-6.89,33-19.63,40.87-38.33,10.62-25.4,9.3-50.55-4.41-74.49C699.18,413.54,681,402.33,658,399a101.29,101.29,0,0,0-14.57-.94Q576,397.91,508.59,398a26.14,26.14,0,0,1-4.34-.16,4.31,4.31,0,0,1-3.8-4.36,4.44,4.44,0,0,1,4-4.59,20.65,20.65,0,0,1,3.15-.09q68.63,0,137.24,0a89.5,89.5,0,0,1,38.72,8.29,78.4,78.4,0,0,1,39.33,40.51c10.8,24.65,11.32,49.7.6,74.43-11.2,25.85-31.34,41-58.79,46.68a98.35,98.35,0,0,1-20,1.83Q612.25,560.49,579.82,560.52Z"/><path class="cls-1" d="M1115,385.78c-.12,2-.14,3.58-.31,5.13-.35,3-2.33,4.88-4.84,4.69s-4.08-2.06-4.16-4.89c-.09-3-.1-6.07,0-9.1.11-3.23,1.64-4.65,5-4.79,1.18-.05,2.37,0,3.56,0h262.62c.07-1.57.19-2.95.19-4.34q0-24.91,0-49.83c0-.92,0-1.84,0-2.76.15-3.87,1.7-5.46,5.62-5.49,7.51-.06,15,0,22.54,0,4.09,0,8.17,0,12.26,0,4.32.05,5.62,1.33,5.63,5.74q.06,24.51,0,49v19.37a25.61,25.61,0,0,1-.06,2.77c-.26,2.6-2,4.26-4.28,4.3a4.56,4.56,0,0,1-4.53-4.14,28,28,0,0,1-.06-3.55q0-29.87,0-59.72v-4.48h-27.93v4.45q0,24.91,0,49.83a21.44,21.44,0,0,1-.19,3.93,4.21,4.21,0,0,1-4,3.73c-1.58.13-3.16.13-4.74.13q-128.33,0-256.65,0Z"/><path class="cls-1" d="M1386.24,477H1414c.06-1.5.17-3,.18-4.53q0-29.87,0-59.72a23.3,23.3,0,0,1,.09-3.55,4.43,4.43,0,0,1,4.74-3.83,4.15,4.15,0,0,1,4,4.07,30.24,30.24,0,0,1,.07,3.16V479a25.55,25.55,0,0,1-.09,3.16,3.92,3.92,0,0,1-3.78,3.85,22.21,22.21,0,0,1-3.16.13q-15.82,0-31.64,0c-6.35,0-7.41-1-7.41-7.28V423.76H1114.68c-1.45,0-2.91.06-4.35,0-3.08-.23-4.54-1.68-4.65-4.74s-.11-6.07,0-9.1a4.38,4.38,0,0,1,4.45-4.55c2.36,0,4.07,1.49,4.47,4.14.23,1.55.22,3.13.34,5.13,1.48.06,2.87.17,4.26.17h60.12q99.47,0,198.93-.08c7.58,0,8,2.46,8,8-.1,16.61,0,33.22,0,49.83Z"/><path class="cls-1" d="M421.45,398v27.8c1.49,0,3,.13,4.52.13h62.86q77.7,0,155.39,0c9.93,0,19.36,2.08,28,7.16,11.51,6.79,18.56,16.9,21.74,29.79.94,3.85-.19,6.4-3,7.11s-4.93-.9-5.86-4.86c-3.92-16.7-17.39-28.84-36.69-29.89-2.37-.13-4.74-.21-7.11-.21H420.69c-8,0-8.54-.55-8.54-8.5V396.05a22.2,22.2,0,0,1,.09-3.16,4.48,4.48,0,0,1,4.17-4.07,12.89,12.89,0,0,1,2-.06H484.8a10.84,10.84,0,0,1,2.74.23,4.43,4.43,0,0,1,3.34,4.37,4.23,4.23,0,0,1-3.38,4.3,17.06,17.06,0,0,1-3.92.29H421.45Z"/><path class="cls-1" d="M131.55,242.38,58.39,169.21v3.84q0,28.47,0,56.95a19.77,19.77,0,0,1-.22,3.93,4.38,4.38,0,0,1-4.68,3.39,4.31,4.31,0,0,1-3.93-3.79,21.31,21.31,0,0,1-.07-2.77v-72a23.63,23.63,0,0,1,0-2.38c.39-3.82,4.13-5.44,7.25-3.13a18.84,18.84,0,0,1,2,1.9L141,237.39c.56.56,1.15,1.1,1.65,1.7,1.81,2.18,1.84,4.26.11,6.42a20.47,20.47,0,0,1-1.65,1.71L58.89,329.43a18.78,18.78,0,0,1-2.31,2.16,4.35,4.35,0,0,1-7-3.12,23.25,23.25,0,0,1-.05-2.77v-72a21.27,21.27,0,0,1,.07-2.77,4.22,4.22,0,0,1,3.85-3.84,4.3,4.3,0,0,1,4.75,3.28,18.38,18.38,0,0,1,.23,3.93q0,28.68,0,57.35v3.86Z"/><path class="cls-1" d="M421.48,523.43v28.12h62.06a19.91,19.91,0,0,1,3.94.2,4.36,4.36,0,0,1,3.39,4.69,4.24,4.24,0,0,1-3.74,4,22.2,22.2,0,0,1-3.16.1H419.11a25.5,25.5,0,0,1-2.77-.06,4.16,4.16,0,0,1-4.11-4,21.11,21.11,0,0,1-.08-2.76V521.25a18.11,18.11,0,0,1,.1-2.76,4.28,4.28,0,0,1,4.2-4c1.3-.13,2.63,0,3.95,0q111.54,0,223.07,0a51.33,51.33,0,0,0,15.59-2.14c13.39-4.25,21.79-13.32,25.7-26.69a35.36,35.36,0,0,1,.94-3.43,4.28,4.28,0,0,1,5.11-2.69,4.07,4.07,0,0,1,3.43,4.2,13.08,13.08,0,0,1-.53,3.5c-5.21,19.33-17.93,30.81-37.27,35a64,64,0,0,1-13.35,1.15q-108.17.09-216.34,0Z"/></svg>
