<?xml version="1.0" encoding="utf-8"?>
<!-- Generator: Adobe Illustrator 22.1.0, SVG Export Plug-In . SVG Version: 6.00 Build 0)  -->
<svg version="1.1" id="Layer_1" xmlns="http://www.w3.org/2000/svg" xmlns:xlink="http://www.w3.org/1999/xlink" x="0px" y="0px"
	 viewBox="0 0 387 273.7" style="enable-background:new 0 0 387 273.7;" xml:space="preserve">
<style type="text/css">
	.st0{fill:#8BC6AA;}
	.st1{fill:#7DBC9F;}
	.st2{fill:#80C5A7;}
	.st3{fill:#EDEDED;}
	.st4{fill:#DDDDDD;}
</style>
<path class="st0" d="M0,273.7h387L113.3,0C43.3,70,0,166.8,0,273.7z"/>
<g>
	<path class="st3" d="M122.2,202.8c-4.3,0-8.7,0-13,0c-1.3,0-2.4-0.5-3.1-1.6c-1.2-2.2,0.3-4.7,2.8-4.8c0.9,0,1.7,0,2.6,0
		c0.4,0,0.6-0.2,0.6-0.6c0-7.2,0-14.4,0-21.6c0-0.5-0.2-0.6-0.6-0.6c-1.2,0-2.3,0-3.5-0.2c-1.3-0.2-2.3-1.6-2.3-3c0-1.4,1-2.7,2.3-3
		c0.4-0.1,0.8-0.2,1.1-0.2c6.7,0,13.5,0,20.2,0c1.3,0,2.4,0.5,2.9,1.8c0.2,0.4,0.2,1,0.2,1.4c0,8.4,0,16.8,0,25.1
		c0,0.9,0,0.9,0.9,0.9c1.1,0,2.1,0,3.2,0.2c1.3,0.2,2.3,1.6,2.3,3c0,1.4-1,2.8-2.3,3c-0.5,0.1-1,0.2-1.5,0.2
		C130.8,202.8,126.5,202.8,122.2,202.8z"/>
	<path class="st3" d="M132.5,151.8c0,5.6-4.5,10.2-10.2,10.2c-5.7,0-10.2-4.7-10.2-10.2c0-5.5,4.5-10.2,10.2-10.2
		C128,141.6,132.5,146.3,132.5,151.8z"/>
</g>
</svg>
