<?xml version="1.0" encoding="utf-8"?>
<!-- Generator: Adobe Illustrator 22.1.0, SVG Export Plug-In . SVG Version: 6.00 Build 0)  -->
<svg version="1.1" id="Layer_1" xmlns="http://www.w3.org/2000/svg" xmlns:xlink="http://www.w3.org/1999/xlink" x="0px" y="0px"
	 viewBox="0 0 387 273.7" style="enable-background:new 0 0 387 273.7;" xml:space="preserve">
<style type="text/css">
	.st0{fill:#8BC6AA;}
	.st1{fill:#7DBC9F;}
	.st2{fill:#80C5A7;}
	.st3{fill:#EDEDED;}
	.st4{fill:#DDDDDD;}
</style>
<path class="st1" d="M0,273.7h387L113.3,0C43.3,70,0,166.8,0,273.7z"/>
<path class="st3" d="M116.1,142.4c5.5-5.5,11.1-11.1,16.6-16.6c2-2,4.5-2.7,7.2-1.8c0.8,0.2,1.4,0.7,2.1,1.1
	c0.2,0.1,0.3,0.3,0.5,0.4c5.3,5.3,10.6,10.6,15.9,15.9c1.5,1.5,2.1,3.3,2,5.3c-0.1,1.6-0.8,3-1.9,4.3c-0.1,0.2-0.3,0.3-0.5,0.5
	c-10.9,10.9-21.9,21.9-32.8,32.8c-1.5,1.5-3.4,2.4-5.6,2.3c-1.6-0.1-3-0.6-4.2-1.7c-0.2-0.2-0.4-0.4-0.6-0.6
	c-5.1-5.1-10.2-10.2-15.3-15.3c-1.7-1.7-2.5-3.6-2.2-6c0.2-1.7,1-3.1,2.2-4.3C105.1,153.4,110.6,147.9,116.1,142.4z M135.8,165.9
	c4.4-4.4,8.8-8.8,13.2-13.2c0.5-0.5,0.5-0.5,0-1.1c-5.5-5.5-11.1-11.1-16.6-16.6c-0.6-0.6-0.6-0.6-1.1,0
	c-8.8,8.8-17.6,17.6-26.4,26.4c-0.6,0.6-0.6,0.6,0,1.2c5.5,5.5,11,11,16.6,16.6c0.5,0.5,0.5,0.5,1.1,0
	C127,174.7,131.4,170.3,135.8,165.9z M148.6,141.3c1.6-1.5,1.7-4.1,0-5.8c-1.6-1.6-4.3-1.6-5.9,0c-1.7,1.7-1.6,4.3,0.1,5.9
	C144.4,143,146.9,143,148.6,141.3z"/>
</svg>
