<svg id="19f81f27-ecf8-4120-a7be-de2b2910c0fe" data-name="Layer 1" xmlns="http://www.w3.org/2000/svg" viewBox="0 0 296.58 147.51"><defs><style>.\35 76ddbc2-bb81-4d74-b49a-1ba195a04fd7{fill:#80c5a7;}.d9cc6e33-56f5-44e6-ae3c-d7d414916443{fill:#ddd;}</style></defs><title>menubarPlus</title><path class="576ddbc2-bb81-4d74-b49a-1ba195a04fd7" d="M147.79-.28A147.79,147.79,0,0,0,0,147.51H295.58A147.79,147.79,0,0,0,147.79-.28Z"/><path class="d9cc6e33-56f5-44e6-ae3c-d7d414916443" d="M151.54,106.82c0,4.08,0,8.16,0,12.24,0,.73-.19,1-.95,1-1.87,0-3.74,0-5.61,0-1,0-1,0-1-1V94.75c0-1.22,0-1.22-1.23-1.22H118.61c-1.06,0-1.06,0-1.06-1V87c0-1,0-1,1-1h24.2C144,86,144,86,144,84.75V60.63c0-1.1,0-1.1,1.09-1.1h5.46c1,0,1,0,1,1q0,12.14,0,24.27c0,1.22,0,1.22,1.22,1.22H177c1.06,0,1.06,0,1.06,1v5.46c0,1,0,1-1,1H152.8c-1.25,0-1.25,0-1.25,1.27Q151.53,100.8,151.54,106.82Z"/><path class="d9cc6e33-56f5-44e6-ae3c-d7d414916443" d="M177,86H118.58c-1,0-1,0-1,1v5.46c0,1,0,1.05,1.06,1.05H177c1,0,1,0,1-1V87.08C178,86,178,86,177,86Z"/></svg>
