<?xml version="1.0" encoding="utf-8"?>
<!-- Generator: Adobe Illustrator 22.1.0, SVG Export Plug-In . SVG Version: 6.00 Build 0)  -->
<svg version="1.1" id="Layer_1" xmlns="http://www.w3.org/2000/svg" xmlns:xlink="http://www.w3.org/1999/xlink" x="0px" y="0px"
	 viewBox="0 0 387 273.7" style="enable-background:new 0 0 387 273.7;" xml:space="preserve">
<style type="text/css">
	.st0{fill:#8BC6AA;}
	.st1{fill:#7DBC9F;}
	.st2{fill:#80C5A7;}
	.st3{fill:#EDEDED;}
	.st4{fill:#DDDDDD;}
</style>
<path class="st1" d="M0,273.7h387L113.3,0C43.3,70,0,166.8,0,273.7z"/>
<g>
	<g>
		<path class="st3" d="M108.3,166.2c0.3,0.1,0.5-0.1,0.8-0.2c3.4-1.5,6.8,0.3,6.9,3.8c0,0.6-0.1,1-0.6,1.5c-1.4,1.4-2.8,2.7-4.1,4.1
			c-0.5,0.5-1,0.7-1.6,0.6c-3.5-0.3-5.2-3.6-3.6-7c0.1-0.2,0.2-0.5,0.2-0.7C106.9,167.6,107.6,166.9,108.3,166.2z"/>
		<path class="st3" d="M122.6,197.9c-1.2-1.1-1.2-1.1,0.2-2.5c4.2-4.2,8.4-8.4,12.6-12.6c1.4-1.4,1.4-1.4,2.5-0.2
			C132.8,187.6,127.7,192.8,122.6,197.9z"/>
		<path class="st3" d="M125.7,185.6c-1.8,1.8-3.7,3.7-5.5,5.5c-0.3,0.3-0.6,0.6-1,0.4c-0.4-0.2-0.7-0.5-0.5-1.1c1-3.5,0-6.3-1.9-8.8
			c-0.5-0.6-1-1.2-1.5-1.8c-0.4-0.4-0.4-0.8,0.1-1.3c1.1-1.1,2.1-2.1,3.2-3.2c0.6-0.6,0.8-0.6,1.3-0.1c1.4,1.4,3,2.6,5,3.3
			c1.7,0.6,3.4,0.7,5.3,0.2c0.3-0.1,0.7-0.2,1,0c0.6,0.4,0.6,0.8,0,1.3C129.4,181.9,127.5,183.8,125.7,185.6
			C125.7,185.6,125.7,185.6,125.7,185.6z"/>
		<path class="st3" d="M128.5,188.5c-2.3,2.3-4.5,4.6-6.8,6.8c-0.8,0.8-0.9,0.8-1.6,0.1c-1.6-1.5-1.6-1.7,0.2-3.5
			c3.9-3.9,7.9-7.9,11.8-11.8c0.3-0.3,0.5-0.5,0.8-0.8c0.6-0.5,1.1-0.6,1.6-0.1c1.9,1.8,1.8,1.4,0,3.2
			C132.6,184.5,130.5,186.5,128.5,188.5z"/>
		<path class="st3" d="M115.2,175.1c-1.1,1.1-2.2,2.2-3.4,3.4c-0.6,0.6-0.8,0.6-1.3,0c-0.6-0.6-0.6-0.7,0-1.3
			c2.2-2.2,4.5-4.5,6.7-6.7c0.6-0.6,0.8-0.5,1.3,0c0.6,0.6,0.6,0.8,0,1.3C117.4,172.9,116.3,174,115.2,175.1z"/>
		<path class="st3" d="M116.5,176.5c-0.7,0.7-1.4,1.4-2.1,2.1c-0.4,0.5-0.8,0.5-1.2,0.1c-0.4-0.4-0.3-0.7,0.1-1.2
			c1.4-1.4,2.9-2.9,4.3-4.3c0.4-0.4,0.8-0.5,1.2-0.1c0.4,0.4,0.4,0.8-0.1,1.2C117.9,175,117.2,175.8,116.5,176.5z"/>
	</g>
	<g>
		<path class="st3" d="M142.2,179.4c-1.9,1.9-3.8,3.8-5.7,5.7c-0.5,0.5-0.6,0.5-1.1-0.1c-0.8-1.2-1.6-2.5-2.5-3.7
			c-0.9-1.3-1.9-2.6-2.9-3.9c-3.7-4.5-7.6-8.7-11.7-12.8c-0.4-0.4-0.3-0.6,0-1c2.7-2.6,5.3-5.3,8-8c0.4-0.4,0.6-0.4,1,0
			c3.6,3.3,7.1,6.7,10.7,9.9c2.3,2,4.7,3.9,7.3,5.5c0.9,0.5,1.7,1.1,2.5,1.7c0.4,0.3,0.4,0.5,0,0.8
			C146,175.5,144.1,177.4,142.2,179.4z"/>
		<path class="st3" d="M149.1,186.3c-3.1,3.1-6.2,6.3-9.4,9.4c-1.2,1.2-3,1.1-4.1-0.1c-0.8-0.9-0.9-2.4-0.2-3.4
			c0.1-0.2,0.3-0.4,0.5-0.5c6.2-6.2,12.4-12.4,18.5-18.5c0.7-0.7,1.6-1.1,2.7-0.9c1.1,0.2,1.8,0.8,2.1,1.9c0.3,1,0.1,2-0.7,2.8
			C155.4,180,152.2,183.2,149.1,186.3z"/>
		<path class="st3" d="M120.5,145.9c1,1.9,2.1,3.9,3.1,5.8c0.2,0.4,0.2,0.7-0.2,1c-2.7,2.7-5.4,5.4-8.1,8.1
			c-0.3,0.3-0.6,0.4-0.9,0.2c-1.9-1-3.9-2.1-5.8-3.1C108.8,157.3,119.9,146.1,120.5,145.9z"/>
		<path class="st3" d="M113.9,151.2c-1.9,1.9-3.8,3.8-5.6,5.6c-0.4,0.4-1.3,0.3-1.6-0.2c-0.1-0.1,0-0.4,0.1-0.6c0.4-1,0.9-2,1.3-3
			c0.5-1.2,1.1-2.4,1.6-3.6c0.1-0.2,0-0.5-0.1-0.6c-0.6-0.6-1.2-1.2-1.8-1.8c-0.3-0.3-0.5-0.2-0.7,0.1c-0.7,0.7-0.6,0.6-1.3,0
			c-0.3-0.3-0.7-0.7-1-1c-0.2-0.2-0.2-0.4,0-0.6c0.1-0.1,0.2-0.2,0.3-0.3c0.2-0.2,0.2-0.4,0-0.6c-0.1-0.1-0.2-0.2-0.3-0.3
			c-0.3-0.2-0.2-0.4,0-0.6c0.4-0.4,0.9-0.9,1.3-1.3c0.2-0.3,0.4-0.2,0.7,0c0.6,0.6,0.7,0.6,1.2,0c0.3-0.3,0.5-0.3,0.7,0
			c0.4,0.4,0.8,0.8,1.2,1.2c0.3,0.3,0.3,0.5,0,0.8c-0.6,0.6-0.6,0.6,0,1.2c0.5,0.5,0.9,0.9,1.4,1.4c0.2,0.3,0.5,0.3,0.8,0.1
			c2.1-1,4.3-1.9,6.5-2.9c0.2-0.1,0.5-0.3,0.8,0.1c0.4,0.7,0.5,0.9,0.1,1.3C117.8,147.4,115.9,149.3,113.9,151.2z"/>
		<path class="st3" d="M144.6,181.8c-2.6,2.6-5.2,5.2-7.8,7.8c-0.7,0.7-1.6,0.7-2.2-0.1c-0.4-0.4-0.4-1.2,0-1.6
			c0.1-0.1,0.2-0.3,0.4-0.4c5.1-5.1,10.3-10.3,15.4-15.4c0.2-0.2,0.5-0.5,0.8-0.6c0.6-0.2,1.3,0.1,1.6,0.7c0.3,0.5,0.2,1.2-0.2,1.7
			c-1,1-2,2-3,3C147.9,178.5,146.3,180.2,144.6,181.8C144.6,181.8,144.6,181.8,144.6,181.8z"/>
		<path class="st3" d="M119.9,157.1c1.8-1.8,3.6-3.6,5.4-5.4c0.5-0.5,1.2-0.6,1.7-0.3c0.6,0.3,0.9,0.9,0.7,1.6
			c-0.1,0.3-0.2,0.5-0.4,0.7c-3.6,3.6-7.1,7.2-10.7,10.7c-0.7,0.7-1.4,0.7-2,0.1c-0.6-0.6-0.6-1.4,0.1-2.1
			C116.4,160.7,118.1,158.9,119.9,157.1z"/>
	</g>
</g>
</svg>
