<svg id="fullMenu" data-name="Layer 1" xmlns="http://www.w3.org/2000/svg" viewBox="0 0 774 387"><defs><style>.\30 dbd9ce7-8e69-4dbe-8af9-c280f90328a8{fill:#8bc6aa;}.c90d67d4-5b90-4077-a626-26b08f9f2395{fill:#7dbc9f;}.\35 e2cee93-2e4a-47a0-81c5-f3c4f95af0ce{fill:#80c5a7;}.\37 bf1d194-f458-410e-b90d-79152f3ac637{fill:#ededed;}.f7560471-30c2-4b73-904b-7e04bf938b31{fill:#ddd;}</style></defs><title>menubar</title>
    <path class="0dbd9ce7-8e69-4dbe-8af9-c280f90328a8 menubarInfo" d="M41,401H428L154.35,127.35A385.79,385.79,0,0,0,41,401Z" transform="translate(-41 -14)"/>
    <path class="c90d67d4-5b90-4077-a626-26b08f9f2395 menubarGames" d="M154.35,127.35,428,401V14A385.78,385.78,0,0,0,154.35,127.35Z" transform="translate(-41 -14)"/>
    <path class="0dbd9ce7-8e69-4dbe-8af9-c280f90328a8 menubarMaps" d="M428,14V401L701.65,127.35A385.79,385.79,0,0,0,428,14Z" transform="translate(-41 -14)"/>
    <path class="c90d67d4-5b90-4077-a626-26b08f9f2395 menubarPhone" d="M701.65,127.35,428,401H815A385.78,385.78,0,0,0,701.65,127.35Z" transform="translate(-41 -14)"/>
    <path class="5e2cee93-2e4a-47a0-81c5-f3c4f95af0ce menubarMiddle" d="M428,252.08A147.79,147.79,0,0,0,280.24,399.87H575.82A147.79,147.79,0,0,0,428,252.08Z" transform="translate(-41 -14)"/>
    <path class="7bf1d194-f458-410e-b90d-79152f3ac637 menubarGames chesspiece" d="M306.91,127.92a1.41,1.41,0,0,0,.72.41c3.47,1.31,4.55,5,2.21,7.6a1.77,1.77,0,0,1-1.43.62c-2,0-3.9,0-5.85,0a1.89,1.89,0,0,1-1.59-.74c-2.24-2.69-1.15-6.18,2.36-7.51a1.31,1.31,0,0,0,.65-.39Z" transform="translate(-41 -14)"/>
    <path class="7bf1d194-f458-410e-b90d-79152f3ac637 menubarGames chesspiece" d="M294.61,160.43c0-1.65,0-1.65,1.89-1.65h17.89c1.92,0,1.92,0,1.89,1.65Z" transform="translate(-41 -14)"/>
    <path class="7bf1d194-f458-410e-b90d-79152f3ac637 menubarGames chesspiece" d="M305.47,154c-2.59,0-5.18,0-7.76,0-.38,0-.85.06-1-.37a.89.89,0,0,1,.41-1.18c3.21-1.76,4.44-4.49,4.92-7.58a10.84,10.84,0,0,0,.16-2.34c0-.59.24-.86.94-.85,1.51,0,3,0,4.54,0,.83,0,1,.13,1,.87a13.34,13.34,0,0,0,1.23,5.9,8.8,8.8,0,0,0,3.64,3.87c.31.17.62.33.68.7.12.69-.11,1-.91,1-2.61,0-5.22,0-7.83,0Z" transform="translate(-41 -14)"/>
    <path class="7bf1d194-f458-410e-b90d-79152f3ac637 menubarGames chesspiece" d="M305.43,158h-9.65c-1.06,0-1.16-.1-1.18-1,0-2.18.1-2.3,2.6-2.3h16.74c.37,0,.74,0,1.1,0,.76.07,1.2.4,1.22,1.05.08,2.66.26,2.23-2.28,2.25C311.13,158.05,308.28,158,305.43,158Z" transform="translate(-41 -14)"/>
    <path class="7bf1d194-f458-410e-b90d-79152f3ac637 menubarGames chesspiece" d="M305.46,139.09h-4.75c-.84,0-1-.15-1-1s.12-.93,1-.94h9.5c.79,0,.92.15.92.92s-.12,1-.93,1C308.63,139.1,307,139.09,305.46,139.09Z" transform="translate(-41 -14)"/>
    <path class="7bf1d194-f458-410e-b90d-79152f3ac637 menubarGames chesspiece" d="M305.45,141h-3c-.64,0-.95-.19-.94-.77s.29-.76.9-.75c2,0,4,0,6.07,0,.61,0,.89.2.9.74s-.29.8-.93.78Z" transform="translate(-41 -14)"/>
    <path class="7bf1d194-f458-410e-b90d-79152f3ac637" d="M321.54,161.2h-8c-.76,0-.82,0-.68-.81.27-1.45.6-2.88.85-4.33.28-1.6.55-3.2.72-4.8.58-5.77.74-11.55.82-17.34,0-.54.19-.67.69-.66h11.25c.51,0,.68.12.7.66.16,4.87.29,9.75.57,14.62a54.52,54.52,0,0,0,1.25,9.07c.22,1,.39,2,.59,3,.1.46-.07.61-.54.61Z" transform="translate(-41 -14)"/>
    <path class="7bf1d194-f458-410e-b90d-79152f3ac637 menubarGames chesspiece" d="M321.53,171H308.26a2.78,2.78,0,0,1-.52-5.52,5.51,5.51,0,0,1,.7-.06h26.21a2.75,2.75,0,0,1,2.5,1.26,2.59,2.59,0,0,1,.16,2.79,2.66,2.66,0,0,1-2.46,1.53Z" transform="translate(-41 -14)"/>
    <path class="7bf1d194-f458-410e-b90d-79152f3ac637 menubarGames chesspiece" d="M329.93,122.21l-1.9,6.28a.71.71,0,0,1-.79.57H315.83a.7.7,0,0,1-.77-.53c-.64-2.1-1.27-4.19-1.91-6.28C313.56,122,329.32,122,329.93,122.21Z" transform="translate(-41 -14)"/>
    <path class="7bf1d194-f458-410e-b90d-79152f3ac637 menubarGames chesspiece" d="M321.48,121.35h-8a1.1,1.1,0,0,1-1-1.24c0-.16.29-.3.47-.38,1-.4,2-.79,3.05-1.17,1.23-.48,2.48-.93,3.7-1.43a.74.74,0,0,0,.37-.52c0-.84,0-1.67,0-2.51,0-.39-.22-.45-.53-.44-1,0-.86-.06-.87-.91,0-.48,0-1,0-1.42s.13-.47.45-.45h.49c.33,0,.48-.13.46-.46,0-.16,0-.33,0-.49,0-.33.14-.45.46-.44.61,0,1.23,0,1.85,0,.36,0,.47.15.48.49,0,.88,0,.89.87.9.36,0,.53.12.51.51,0,.58,0,1.16,0,1.74,0,.4-.13.55-.54.55-.85,0-.85,0-.85.87,0,.65,0,1.31,0,2a.61.61,0,0,0,.48.68c2.2.83,4.41,1.67,6.6,2.53.25.1.62.14.53.61-.16.8-.32,1-.87,1Z" transform="translate(-41 -14)"/>
    <path class="7bf1d194-f458-410e-b90d-79152f3ac637 menubarGames chesspiece" d="M321.54,164.71H310.47a1.39,1.39,0,0,1-1.5-1.59A1.34,1.34,0,0,1,310.1,162a3.26,3.26,0,0,1,.54,0h21.78a2.36,2.36,0,0,1,1,.18,1.37,1.37,0,0,1,.67,1.58,1.43,1.43,0,0,1-1.35,1H321.54Z" transform="translate(-41 -14)"/>
    <path class="7bf1d194-f458-410e-b90d-79152f3ac637 menubarGames chesspiece" d="M321.58,129.74h7.59a1.41,1.41,0,0,1,1.38,1,1.36,1.36,0,0,1-.58,1.61,1.71,1.71,0,0,1-.83.21H314a1.31,1.31,0,0,1-1.48-1.36,1.36,1.36,0,0,1,1.51-1.42C316.52,129.73,319.05,129.74,321.58,129.74Z" transform="translate(-41 -14)"/>
    <path class="7bf1d194-f458-410e-b90d-79152f3ac637 menubarMaps" d="M538.45,174.51c-2.37-2.74-4.7-5.38-7-8.07a72.68,72.68,0,0,1-8.07-11.55c-1.34-2.42-2.62-4.9-3.72-7.44a51.86,51.86,0,0,1-2-6.13,20.54,20.54,0,0,1-.85-6.79,21.56,21.56,0,0,1,9.57-17.47,21.31,21.31,0,0,1,19.93-2.22,21.7,21.7,0,0,1,8.91,6.58,21.46,21.46,0,0,1,4.1,8.09,23.66,23.66,0,0,1,.5,9.14A35,35,0,0,1,558,146a55.22,55.22,0,0,1-4.15,9,76,76,0,0,1-11.65,15.28c-1.21,1.26-2.32,2.61-3.48,3.92Zm-.07-49.25a9.82,9.82,0,1,0,9.77,9.81A9.73,9.73,0,0,0,538.38,125.26Z" transform="translate(-41 -14)"/>
    <path class="7bf1d194-f458-410e-b90d-79152f3ac637 menubarPhone" d="M712.37,302.31q0,11.74,0,23.47a6.76,6.76,0,0,1-3.84,6.37,12,12,0,0,1-2.32.7,2.57,2.57,0,0,1-.68,0H683.05a6.64,6.64,0,0,1-5.17-2.4,7.07,7.07,0,0,1-1.7-4.32c0-.23,0-.45,0-.68V279.13a7.17,7.17,0,0,1,2.3-5.6,6.55,6.55,0,0,1,4.17-1.78l.84,0c7.21,0,14.42,0,21.64,0a6.93,6.93,0,0,1,5.77,2.68,7.07,7.07,0,0,1,1.49,4.55C712.36,286.74,712.37,294.53,712.37,302.31Zm-30.58-2.77v18.72c0,.74,0,.74.75.74H706c.81,0,.81,0,.81-.79V280.93c0-.84,0-.84-.83-.84H682.56c-.77,0-.77,0-.77.78ZM690.15,326a4.09,4.09,0,0,0,4.12,4.15,4.15,4.15,0,1,0,0-8.3A4.07,4.07,0,0,0,690.15,326Z" transform="translate(-41 -14)"/>
    <path class="7bf1d194-f458-410e-b90d-79152f3ac637 menubarInfo" d="M163.23,330.13h-13a3.21,3.21,0,1,1-.26-6.42c.85,0,1.71,0,2.57,0,.43,0,.61-.15.61-.61q0-10.82,0-21.63c0-.48-.18-.63-.64-.64a25.2,25.2,0,0,1-3.48-.2,3,3,0,0,1-2.27-3,3.09,3.09,0,0,1,2.31-3,4.89,4.89,0,0,1,1.13-.16h20.21a2.81,2.81,0,0,1,2.89,1.82,4.16,4.16,0,0,1,.18,1.45q0,12.57,0,25.13c0,.89,0,.87.92.9a23.57,23.57,0,0,1,3.15.18,3,3,0,0,1,2.3,3,3.09,3.09,0,0,1-2.27,3.05,6.61,6.61,0,0,1-1.46.17C171.81,330.14,167.52,330.13,163.23,330.13Z" transform="translate(-41 -14)"/>
    <path class="7bf1d194-f458-410e-b90d-79152f3ac637 menubarInfo" d="M173.45,279.16A10.18,10.18,0,1,1,163.29,269,10.13,10.13,0,0,1,173.45,279.16Z" transform="translate(-41 -14)"/>
    <path class="f7560471-30c2-4b73-904b-7e04bf938b31 menuPlus" d="M431.78,359.18c0,4.08,0,8.16,0,12.24,0,.73-.19,1-.95,1-1.87-.05-3.74,0-5.61,0-1,0-1,0-1-1V347.11c0-1.22,0-1.22-1.23-1.22H398.85c-1.06,0-1.06,0-1.06-1.05v-5.46c0-1,0-1,1-1H423c1.25,0,1.25,0,1.25-1.27V313c0-1.1,0-1.1,1.09-1.1h5.46c1,0,1,0,1,1q0,12.14,0,24.26c0,1.22,0,1.23,1.22,1.23h24.2c1.06,0,1.06,0,1.06,1.05v5.45c0,1,0,1-1,1H433c-1.25,0-1.25,0-1.26,1.26Z" transform="translate(-41 -14)"/>
    <path class="f7560471-30c2-4b73-904b-7e04bf938b31 menuMinus" d="M457.21,338.39H398.82c-1,0-1,0-1,1v5.46c0,1,0,1,1.06,1h58.39c1,0,1,0,1-1v-5.46C458.27,338.39,458.27,338.39,457.21,338.39Z" transform="translate(-41 -14)"/></svg>
